<svg width="24" height="37" viewBox="0 0 24 37" fill="none" xmlns="http://www.w3.org/2000/svg">
<path d="M19.768 0H3.95361C2.90505 0 1.89943 0.41654 1.15799 1.15799C0.41654 1.89943 0 2.90505 0 3.95361V32.9467C0 33.9953 0.41654 35.0009 1.15799 35.7424C1.89943 36.4838 2.90505 36.9004 3.95361 36.9004H19.768C20.8166 36.9004 21.8222 36.4838 22.5637 35.7424C23.3051 35.0009 23.7217 33.9953 23.7217 32.9467V3.95361C23.7217 2.90505 23.3051 1.89943 22.5637 1.15799C21.8222 0.41654 20.8166 0 19.768 0ZM21.0859 32.9467C21.0859 33.2963 20.9471 33.6315 20.6999 33.8786C20.4528 34.1258 20.1176 34.2646 19.768 34.2646H3.95361C3.60409 34.2646 3.26888 34.1258 3.02174 33.8786C2.77459 33.6315 2.63574 33.2963 2.63574 32.9467V3.95361C2.63574 3.60409 2.77459 3.26888 3.02174 3.02174C3.26888 2.77459 3.60409 2.63574 3.95361 2.63574H19.768C20.1176 2.63574 20.4528 2.77459 20.6999 3.02174C20.9471 3.26888 21.0859 3.60409 21.0859 3.95361V32.9467ZM18.4502 6.58935C18.4502 6.93887 18.3113 7.27408 18.0642 7.52122C17.817 7.76837 17.4818 7.90722 17.1323 7.90722H6.58935C6.23983 7.90722 5.90462 7.76837 5.65747 7.52122C5.41033 7.27408 5.27148 6.93887 5.27148 6.58935C5.27148 6.23983 5.41033 5.90462 5.65747 5.65747C5.90462 5.41033 6.23983 5.27148 6.58935 5.27148H17.1323C17.4818 5.27148 17.817 5.41033 18.0642 5.65747C18.3113 5.90462 18.4502 6.23983 18.4502 6.58935Z" fill="white"/>
</svg>
