<svg width="99" height="73" viewBox="0 0 99 73" fill="none" xmlns="http://www.w3.org/2000/svg">
<mask id="mask0_707_1098" style="mask-type:luminance" maskUnits="userSpaceOnUse" x="0" y="0" width="99" height="73">
<path d="M97.9944 0L6.10352e-05 1.05662L0.771577 72.6097L98.7659 71.5531L97.9944 0Z" fill="white"/>
</mask>
<g mask="url(#mask0_707_1098)">
<path d="M57.2288 53.2238L46.8743 53.3355C45.5353 53.3496 44.2463 52.91 43.2909 52.1135L36.326 46.3092C35.3706 45.5126 34.0816 45.073 32.7426 45.0872L11.7718 45.3133" stroke="#D3D6E8" stroke-width="4" stroke-miterlimit="10" stroke-dasharray="177 125"/>
<path d="M57.2288 53.2238L46.8743 53.3355C45.5353 53.3496 44.2463 52.91 43.2909 52.1135L36.326 46.3092C35.3706 45.5126 34.0816 45.073 32.7426 45.0872L11.7718 45.3133" stroke="#B8C1FF" stroke-width="4" stroke-miterlimit="10" stroke-dasharray="177 125"/>
<path d="M34.6511 36.8278C35.9904 36.8133 37.2794 37.2532 38.2345 38.0504L45.1994 43.8553C46.1569 44.6506 47.4466 45.089 48.7863 45.0749L69.7081 44.8493" stroke="#D3D6E8" stroke-width="4" stroke-miterlimit="10" stroke-dasharray="194 125"/>
<path d="M34.6511 36.8278C35.9904 36.8133 37.2794 37.2532 38.2345 38.0504L45.1994 43.8553C46.1569 44.6506 47.4466 45.089 48.7863 45.0749L69.7081 44.8493" stroke="#B8C1FF" stroke-width="4" stroke-miterlimit="10" stroke-dasharray="194 125"/>
<path d="M53.4174 28.2259L57.9313 32.9688C60.082 35.2249 63.3269 36.5186 66.7441 36.4817L83.7322 36.2985" stroke="#B8C1FF" stroke-width="4" stroke-miterlimit="10" stroke-dasharray="179 125"/>
<path d="M9.19505 37.1022L34.6512 36.8278C35.9905 36.8133 37.2697 36.3457 38.2074 35.5281L45.0456 29.5774C45.9843 28.7596 47.2649 28.2922 48.6053 28.2778L69.5271 28.0522" stroke="#D3D6E8" stroke-width="4" stroke-miterlimit="10" stroke-dasharray="247 125"/>
<path d="M9.19505 37.1022L34.6512 36.8278C35.9905 36.8133 37.2697 36.3457 38.2074 35.5281L45.0456 29.5774C45.9843 28.7596 47.2649 28.2922 48.6053 28.2778L69.5271 28.0522" stroke="#B8C1FF" stroke-width="4" stroke-miterlimit="10" stroke-dasharray="247 125"/>
<path d="M11.5925 28.6766L32.9132 28.4467C34.2522 28.432 35.5314 27.9649 36.4694 27.148L43.3076 21.1943C44.2456 20.3773 45.5248 19.9103 46.8638 19.8956L57.2183 19.7839" stroke="#D3D5E8" stroke-width="4" stroke-miterlimit="10" stroke-dasharray="210 125"/>
<path d="M11.5925 28.6766L32.9132 28.4467C34.2522 28.432 35.5314 27.9649 36.4694 27.148L43.3076 21.1943C44.2456 20.3773 45.5248 19.9103 46.8638 19.8956L57.2183 19.7839" stroke="#B8C1FF" stroke-width="4" stroke-miterlimit="10" stroke-dasharray="210 125"/>
<path d="M30.3452 54.6497C18.7703 54.7746 9.30011 46.8821 9.19379 37.0217C9.08747 27.1611 18.3853 19.0666 29.9602 18.9418" stroke="#B8C1FF" stroke-width="4" stroke-miterlimit="10" stroke-dasharray="194 125"/>
<g opacity="0.9877">
<path d="M32.4943 16.4232C34.1091 16.4058 35.4304 17.507 35.4452 18.8826C35.46 20.2582 34.1628 21.3877 32.548 21.4051C30.9332 21.4225 29.6119 20.3213 29.597 18.9457C29.5822 17.5701 30.8795 16.4406 32.4943 16.4232Z" fill="#B8C1FF"/>
</g>
<g opacity="0.9877">
<path d="M32.892 52.1308C34.5068 52.1134 35.8281 53.2146 35.843 54.5902C35.8578 55.9658 34.5606 57.0953 32.9458 57.1127C31.3309 57.1301 30.0096 56.0289 29.9948 54.6533C29.98 53.2776 31.2772 52.1482 32.892 52.1308Z" fill="#B8C1FF"/>
</g>
<g opacity="0.9877">
<path d="M59.7658 17.2652C61.3806 17.2478 62.7019 18.349 62.7167 19.7246C62.7315 21.1003 61.4343 22.2297 59.8195 22.2471C58.2047 22.2645 56.8834 21.1633 56.8685 19.7877C56.8537 18.4121 58.1509 17.2826 59.7658 17.2652Z" fill="#B8C1FF"/>
</g>
<g opacity="0.9877">
<path d="M72.0144 25.5336C73.6292 25.5162 74.9505 26.6174 74.9653 27.993C74.9801 29.3686 73.6829 30.498 72.0681 30.5155C70.4533 30.5329 69.132 29.4317 69.1171 28.056C69.1023 26.6804 70.3995 25.551 72.0144 25.5336Z" fill="#B8C1FF"/>
</g>
<g opacity="0.9877">
<path d="M85.9889 33.783C87.6037 33.7656 88.925 34.8668 88.9398 36.2424C88.9547 37.618 87.6574 38.7475 86.0426 38.7649C84.4278 38.7823 83.1065 37.6811 83.0917 36.3055C83.0768 34.9299 84.3741 33.8004 85.9889 33.783Z" fill="#B8C1FF"/>
</g>
<g opacity="0.9877">
<path d="M71.9446 42.334C73.5595 42.3165 74.8808 43.4178 74.8956 44.7934C74.9104 46.169 73.6132 47.2984 71.9984 47.3158C70.3836 47.3333 69.0623 46.232 69.0474 44.8564C69.0326 43.4808 70.3298 42.3514 71.9446 42.334Z" fill="#B8C1FF"/>
</g>
<g opacity="0.9877">
<path d="M59.9071 50.7034C61.5219 50.686 62.8432 51.7873 62.8581 53.1629C62.8729 54.5385 61.5756 55.6679 59.9608 55.6853C58.346 55.7027 57.0247 54.6015 57.0099 53.2259C56.9951 51.8503 58.2923 50.7209 59.9071 50.7034Z" fill="#B8C1FF"/>
</g>
</g>
</svg>
