<svg width="97" height="96" viewBox="0 0 97 96" fill="none" xmlns="http://www.w3.org/2000/svg">
<mask id="mask0_706_213" style="mask-type:luminance" maskUnits="userSpaceOnUse" x="0" y="0" width="97" height="96">
<path d="M73.3112 0L0 24.6031L23.6709 95.1366L96.9821 70.5335L73.3112 0Z" fill="white"/>
</mask>
<g mask="url(#mask0_706_213)">
<g opacity="0.35">
<path d="M58.6679 79.4137C71.1195 75.2349 80.8247 70.6906 80.3458 69.2634C79.8668 67.8362 69.3851 70.0668 56.9335 74.2455C44.4822 78.4242 34.7765 82.9684 35.2554 84.3956C35.7344 85.8228 46.2166 83.5923 58.6679 79.4137Z" fill="#46401A" fill-opacity="0.25"/>
</g>
<path d="M21.7262 39.8448C21.71 39.8503 21.6924 39.8517 21.6744 39.8482L20.9727 39.7152C20.933 39.7078 20.8919 39.7104 20.8538 39.7232C20.8355 39.7293 20.8175 39.7382 20.8012 39.7487C20.6966 39.8168 20.5826 39.8724 20.4637 39.9134L20.4516 39.9174C19.687 40.1741 18.8548 39.789 18.5963 39.0586C18.4672 38.6948 18.4953 38.3017 18.6747 37.9518C18.8541 37.6019 19.1625 37.3385 19.5428 37.2109C19.5522 37.2077 19.5611 37.2047 19.5705 37.2015C20.3425 36.9581 21.167 37.362 21.4084 38.102C21.517 38.4341 21.4951 38.7955 21.3464 39.1189C21.3043 39.2102 21.3279 39.3152 21.4051 39.3805L21.7614 39.6809C21.7948 39.7094 21.8041 39.7561 21.7835 39.7954C21.7713 39.8196 21.7502 39.8368 21.7262 39.8448Z" fill="#FFDB00"/>
<path d="M19.5732 37.3013C19.5821 37.2983 19.5904 37.2955 19.5993 37.2926C20.3194 37.066 21.0891 37.4436 21.3148 38.1334C21.42 38.4555 21.3906 38.7909 21.2568 39.0824C21.1973 39.212 21.2315 39.3627 21.3396 39.4539L21.6959 39.7544L20.9942 39.6213C20.937 39.6103 20.8786 39.6148 20.8236 39.6332C20.797 39.6422 20.7715 39.6546 20.748 39.6698C20.652 39.7322 20.5467 39.7843 20.433 39.8236C20.4294 39.8248 20.4257 39.826 20.4215 39.8275C19.708 40.0664 18.9319 39.7082 18.69 39.0255C18.4413 38.3227 18.8404 37.5472 19.5732 37.3013ZM19.5124 37.1204C19.1066 37.2566 18.7778 37.5375 18.5865 37.911C18.3953 38.2844 18.3655 38.7038 18.5027 39.0917C18.7786 39.8705 19.6667 40.2815 20.4821 40.0079L20.4951 40.0035C20.6224 39.9597 20.7434 39.9006 20.8552 39.8279C20.8643 39.822 20.8737 39.8172 20.8842 39.8137C20.9056 39.8065 20.9289 39.8048 20.9513 39.8091L21.653 39.9421C21.6884 39.9487 21.7235 39.9459 21.7559 39.935C21.8046 39.9187 21.8466 39.8844 21.8716 39.8374C21.9127 39.7588 21.8945 39.6648 21.8273 39.6085L21.4716 39.3078C21.4268 39.2697 21.4128 39.209 21.4369 39.1562C21.5952 38.8111 21.6189 38.4257 21.5035 38.0713C21.2456 37.282 20.366 36.8513 19.5424 37.1109C19.5323 37.1137 19.5224 37.117 19.5124 37.1204Z" fill="#46401A"/>
<path d="M19.7019 37.3694C18.9524 37.6053 18.5408 38.3905 18.7924 39.1019C18.8727 39.3289 19.0123 39.5197 19.189 39.6645C18.9641 39.5129 18.7856 39.2949 18.6899 39.0255C18.4379 38.3143 18.85 37.529 19.5993 37.2926C20.0693 37.1444 20.5599 37.2538 20.9069 37.5388C20.5695 37.312 20.1271 37.2351 19.7019 37.3694Z" fill="white" fill-opacity="0.1"/>
<path d="M20.1361 39.6274C20.2498 39.5881 20.3551 39.536 20.4511 39.4736C20.4611 39.4669 20.4771 39.4592 20.4977 39.4512C20.6891 39.373 20.8304 39.2132 20.8994 39.0233C20.9164 38.9768 20.9387 38.9324 20.9604 38.886C21.0942 38.5945 21.1236 38.2591 21.0185 37.9371C20.9445 37.7097 20.8103 37.5164 20.6391 37.3669C20.9514 37.5188 21.2017 37.786 21.3145 38.1324C21.4191 38.453 21.3907 38.7863 21.2589 39.0766C21.1994 39.2079 21.2286 39.3592 21.3375 39.4513L21.6957 39.7538L20.994 39.6208C20.9088 39.6046 20.8194 39.6224 20.7463 39.6698C20.6508 39.7321 20.5458 39.7835 20.4327 39.8226C19.9397 39.9925 19.4151 39.8755 19.0564 39.5624C19.3783 39.7206 19.7663 39.7549 20.1361 39.6274Z" fill="#6F620F" fill-opacity="0.15"/>
<path d="M20.3344 37.9815C20.1567 37.8974 19.9469 37.9936 19.8558 38.1678L19.8416 38.195L19.814 38.1819C19.6362 38.0978 19.4108 38.1477 19.3198 38.322C19.2287 38.4963 19.2989 38.7054 19.4767 38.7895L19.5043 38.8026L20.0625 39.0665C20.1096 39.0888 20.1666 39.0696 20.1907 39.0235L20.4767 38.4763L20.4908 38.4491C20.5824 38.2747 20.5122 38.0655 20.3344 37.9815Z" fill="white"/>
<path d="M34.8243 47.1805L39.7131 61.7479C39.9936 62.5839 40.4856 63.2925 41.1163 63.8412C42.4426 64.9972 44.378 65.4345 46.2091 64.82L60.3221 60.0837C62.086 59.4918 63.3395 58.0639 63.7504 56.4202C63.9704 55.5471 63.9519 54.6155 63.6496 53.7148L58.7608 39.1474C58.6531 38.8265 58.5157 38.5282 58.3492 38.2475C57.8933 37.4703 57.2306 36.8499 56.4524 36.4275C55.2267 35.7623 53.714 35.5891 52.2626 36.0762L38.152 40.8117C36.0446 41.5189 34.6684 43.4172 34.5808 45.4507C34.5566 46.0241 34.6329 46.6101 34.8243 47.1805Z" fill="white"/>
<path d="M60.4431 60.4361L46.3277 65.1733C43.4176 66.1499 40.2848 64.6703 39.3455 61.8713L34.4567 47.3038C33.5181 44.5072 35.1209 41.4357 38.0334 40.4583L52.1488 35.7212C55.0589 34.7446 58.1919 36.2242 59.1312 39.0231L64.02 53.5906C64.9586 56.3873 63.3532 59.4595 60.4431 60.4361ZM38.2705 41.1651C35.7642 42.0062 34.382 44.6514 35.1904 47.0601L40.0792 61.6275C40.8875 64.036 43.5857 65.3124 46.0921 64.4713L60.2076 59.7342C62.7139 58.893 64.0957 56.2473 63.2875 53.8389L58.3987 39.2715C57.5903 36.8627 54.8924 35.5868 52.386 36.4279L38.2705 41.1651Z" fill="#46401A"/>
<path d="M36.8556 42.7806C36.8556 42.7806 32.9845 51.5133 34.8569 57.0927C36.4597 61.8685 43.124 61.4589 43.124 61.4589L46.9695 44.826L36.8556 42.7806Z" fill="white"/>
<path d="M34.8562 57.0904C36.4589 61.8661 43.1233 61.4565 43.1233 61.4565L43.2184 61.0469L46.9688 44.8238L39.3445 43.2815L36.8549 42.7784C36.8557 42.7806 32.9846 51.5133 34.8562 57.0904Z" fill="white"/>
<path d="M37.6372 56.8843C38.5626 59.6417 41.1753 60.6712 43.2184 61.0468L46.9687 44.8236L39.3445 43.2815C38.4786 45.4735 36.0856 52.2609 37.6372 56.8843Z" fill="#46401A" fill-opacity="0.2"/>
<path d="M43.435 61.8118L43.1386 61.829C43.0674 61.8323 41.3863 61.9289 39.4818 61.4247C36.9133 60.7424 35.1869 59.2867 34.4909 57.2128C32.596 51.5665 36.341 42.9995 36.5034 42.6392L36.631 42.3499L47.4298 44.5327L43.435 61.8118ZM37.0861 43.212C36.4502 44.7589 33.6047 52.1504 35.2222 56.9701C36.5319 60.8729 41.5439 61.1001 42.814 61.0926L46.5075 45.1147L37.0861 43.212Z" fill="#46401A"/>
<path d="M44.2368 78.4935C44.2617 78.5518 44.2915 78.6089 44.3229 78.6625C45.2265 80.3275 47.5968 80.236 51.3133 78.4439C52.9963 77.6349 55.3382 76.5586 55.5289 74.9996C55.9068 71.887 52.779 66.8933 51.7624 63.3621L51.7609 63.3577C51.7609 63.3577 52.4952 63.2036 53.3699 62.91C54.247 62.6157 54.9258 62.2956 54.9258 62.2956C54.935 62.3231 54.9466 62.3498 54.9567 62.38C56.2552 65.819 56.7812 71.6163 58.9443 73.8557C60.037 74.9845 62.5516 74.431 64.3843 74.0601C68.4344 73.2457 70.3766 71.8872 70.089 70.0101C70.0791 69.9493 70.07 69.8905 70.0556 69.8311C69.5538 67.5945 66.0782 67.6432 66.0782 67.6432C66.0782 67.6432 65.2241 62.8271 64.2869 58.5373C63.8924 56.7321 63.3319 54.9186 62.6705 53.1466C62.5002 52.6874 62.3224 52.2305 62.1388 51.7782C61.877 51.1337 61.6082 50.4995 61.3284 49.8739C61.0851 49.3312 60.8391 48.797 60.5863 48.2756C59.6422 46.3056 58.6456 44.4766 57.7191 42.8862C56.8872 41.4592 56.1108 40.2216 55.4732 39.2459C55.3317 39.0313 55.1997 38.829 55.0714 38.6382C54.3071 37.4918 53.8259 36.8387 53.8259 36.8387L37.2787 42.3919C37.2787 42.3919 37.2887 43.2109 37.373 44.5931C37.4199 45.4022 37.4952 46.4073 37.6043 47.5528C37.6476 48.0008 37.6956 48.4701 37.7529 48.9597C37.9757 50.9379 38.307 53.2239 38.7915 55.6078C38.904 56.1661 39.0254 56.7267 39.1561 57.2918C39.3161 57.9832 39.4902 58.6776 39.6779 59.3726C39.8111 59.865 39.9499 60.358 40.0982 60.8479C40.1964 61.1721 40.2975 61.4978 40.4029 61.8196C40.8691 63.2563 41.4089 64.6656 42.026 66.0026C43.8665 69.9892 46.0883 74.3469 46.0883 74.3469C46.0883 74.3469 43.2879 76.4069 44.2368 78.4935Z" fill="white"/>
<path d="M58.9428 73.8509C60.0355 74.9797 62.5501 74.4263 64.3835 74.0576C68.4329 73.2409 70.3758 71.8844 70.0882 70.0079C67.3143 72.2903 61.4755 73.479 59.999 72.2582C58.087 70.6796 57.2179 68.7516 58.3129 65.6167C59.4085 62.4841 58.4679 59.1871 58.4679 59.1871C57.7645 60.1503 56.1042 61.4964 54.953 62.3764C56.2536 65.8142 56.7798 71.6119 58.9428 73.8509Z" fill="#46401A" fill-opacity="0.2"/>
<path d="M44.3221 78.6603C45.2256 80.3248 47.5954 80.2316 51.311 78.4447C52.994 77.6357 55.3381 76.5586 55.5256 74.9977C55.9034 71.8852 52.7759 66.8918 51.7592 63.3606C50.5741 63.3985 48.3628 63.4057 47.0655 63.0138C47.0655 63.0138 47.3204 65.5258 50.6399 67.9602C53.3184 69.9264 54.1373 71.9284 53.5644 74.3403C53.1602 76.0513 48.1214 78.3896 44.3221 78.6603Z" fill="#46401A" fill-opacity="0.2"/>
<path d="M48.439 70.6517C45.4328 71.6606 43.9772 70.7487 43.8915 70.6929C43.717 70.5793 43.6763 70.3465 43.7977 70.1744C43.9199 70.005 44.1583 69.9586 44.3319 70.0695C44.3764 70.0984 47.101 71.6843 53.042 67.247C53.2133 67.12 53.4551 67.1469 53.5818 67.3096C53.7088 67.4728 53.6744 67.705 53.5039 67.8343C51.4834 69.3425 49.8016 70.1944 48.439 70.6517Z" fill="#46401A"/>
<path d="M62.3315 66.1746C59.6401 67.0778 56.4504 67.1334 56.2476 67.1348C56.0344 67.1368 55.8645 66.973 55.8673 66.7663C55.87 66.5596 56.0435 66.391 56.2567 66.389C56.3284 66.3879 63.4443 66.2637 65.0102 63.536C65.115 63.3543 65.3488 63.2861 65.5351 63.3802C65.7204 63.4775 65.7853 63.7024 65.6836 63.8858C65.0602 64.9685 63.7661 65.6932 62.3315 66.1746Z" fill="#46401A"/>
<path d="M54.7454 61.9654L55.2194 61.6649C55.3785 61.5576 55.5393 61.4549 55.6975 61.3449C56.0159 61.1305 56.328 60.9048 56.6345 60.671C56.9442 60.4387 57.238 60.1908 57.5398 59.9431C57.8481 59.6985 58.1373 59.4367 58.4679 59.1871C58.3213 59.5626 58.1214 59.9154 57.8801 60.2399C57.7652 60.4074 57.6327 60.5623 57.5026 60.7163C57.3654 60.865 57.2281 61.0141 57.0806 61.156C56.792 61.4431 56.4803 61.7095 56.1538 61.9553C55.8215 62.2001 55.4903 62.4246 55.0982 62.618C54.908 62.7124 54.6756 62.6417 54.5823 62.4595C54.4955 62.2882 54.5574 62.0825 54.7205 61.9787L54.7454 61.9654Z" fill="#46401A"/>
<path d="M51.8211 63.7202C51.394 63.8017 50.9921 63.8234 50.5795 63.8286C50.1708 63.8295 49.7607 63.8028 49.358 63.7502C49.1571 63.7252 48.9546 63.6875 48.7562 63.654C48.5571 63.6105 48.3605 63.566 48.1679 63.5022C47.7818 63.3875 47.4066 63.2258 47.0639 63.0168C47.4783 63.0168 47.8667 63.0508 48.2601 63.0599C48.6495 63.0731 49.0365 63.095 49.4213 63.0943C49.8068 63.0958 50.1917 63.0877 50.5751 63.067C50.7675 63.0587 50.9578 63.0435 51.1494 63.0332L51.7087 62.9871L51.7295 62.985C51.9429 62.9674 52.1248 63.1198 52.1379 63.326C52.1528 63.5136 52.0114 63.6816 51.8211 63.7202Z" fill="#46401A"/>
<path d="M66.1312 68.0082C65.9088 68.0546 65.6656 68.1105 65.4311 68.1688C65.1967 68.227 64.9599 68.2861 64.7267 68.3565C64.2575 68.4882 63.798 68.6399 63.3427 68.8131C62.8916 68.9903 62.4558 69.1983 62.0208 69.4236C61.5939 69.6568 61.1897 69.9263 60.773 70.2305C61.0146 69.787 61.3642 69.395 61.7595 69.0591C62.1596 68.7297 62.6078 68.4558 63.0678 68.2168C63.5324 67.984 64.0149 67.7885 64.5065 67.6284C64.7533 67.5509 65.0014 67.478 65.2543 67.4188C65.5089 67.3568 65.755 67.3097 66.0285 67.2719C66.241 67.2444 66.4307 67.3863 66.454 67.5915C66.4759 67.7845 66.341 67.9637 66.1465 68.0061L66.1312 68.0082Z" fill="#46401A"/>
<path d="M45.9055 74.0251C46.1457 73.8882 46.3712 73.7794 46.6116 73.6753C46.849 73.5699 47.0909 73.4784 47.3344 73.3913C47.8231 73.2224 48.3259 73.0873 48.8369 72.9927C49.3502 72.905 49.8706 72.8539 50.3884 72.8753C50.907 72.907 51.4224 73.0087 51.8818 73.2144C51.3685 73.2223 50.8811 73.252 50.3999 73.3236C49.9194 73.4056 49.4466 73.5024 48.9774 73.6341C48.5124 73.7698 48.0517 73.9269 47.598 74.1049C47.3703 74.1915 47.1458 74.2872 46.923 74.3801C46.7032 74.4742 46.4732 74.5772 46.2678 74.6744L46.2543 74.6819C46.06 74.7723 45.8318 74.6976 45.7426 74.5116C45.6589 74.3339 45.7329 74.1243 45.9055 74.0251Z" fill="#46401A"/>
<path d="M58.3232 59.3694C58.3232 59.3694 55.5599 60.8235 53.3035 61.5808C51.047 62.3381 47.2766 63.0767 47.2766 63.0767C47.2766 63.0767 50.0059 64.0235 53.4398 62.7913C56.9611 61.525 58.3232 59.3694 58.3232 59.3694Z" fill="#46401A" fill-opacity="0.2"/>
<path d="M38.7253 55.0519C38.7013 55.06 38.6765 55.0658 38.6501 55.0669C35.6089 55.2705 34.1741 53.3289 34.1142 53.2462C34.0237 53.1199 34.0566 52.9471 34.1892 52.8563C34.3219 52.7654 34.4996 52.7932 34.5901 52.9195C34.6443 52.9937 35.9174 54.6915 38.6239 54.5104C38.7837 54.5004 38.919 54.6169 38.9254 54.7716C38.9329 54.8975 38.8479 55.0108 38.7253 55.0519Z" fill="#46401A"/>
<path d="M65.7156 29.3364C65.1878 30.4595 64.6849 31.336 64.6849 31.336L63.2208 34.5299L60.2904 31.6436C60.2904 31.6436 60.0046 30.9304 59.6985 29.9559C59.092 28.028 58.402 25.0744 59.6755 24.6159C61.9652 23.7882 62.6029 29.9216 62.6029 29.9216C62.6029 29.9216 64.4688 23.9487 66.3896 24.5992C67.5104 24.9792 66.5798 27.491 65.7156 29.3364Z" fill="white"/>
<path d="M63.3547 34.8673C63.3308 34.8775 63.3086 34.8844 63.283 34.8901C63.1547 34.9189 63.0229 34.8872 62.9361 34.7997L60.0077 31.9142C59.9754 31.8813 59.9493 31.8433 59.933 31.801C59.7263 31.2851 57.943 26.7097 58.8223 24.9544C58.989 24.6213 59.251 24.3849 59.5737 24.2678C60.0205 24.1055 60.4619 24.1399 60.8526 24.3594C61.9178 24.9651 62.4869 26.9469 62.7663 28.3654C63.3318 26.9438 64.2945 24.9508 65.4221 24.3601C65.7967 24.1638 66.1882 24.1237 66.5465 24.2455C66.8603 24.3526 67.0872 24.5798 67.2003 24.9101C67.7817 26.5704 65.3573 30.9075 65.0314 31.4773L63.5759 34.6535C63.5312 34.7478 63.4504 34.8263 63.3547 34.8673ZM60.6318 31.4195L63.1165 33.8668L64.3329 31.2103C64.3376 31.2005 64.3436 31.1875 64.3505 31.1768C65.3581 29.416 66.8244 26.2377 66.4626 25.2045C66.4019 25.0333 66.3076 24.9829 66.2336 24.9574C66.0771 24.905 65.9199 24.9229 65.7417 25.0172C64.5579 25.6344 63.3448 28.8264 62.9774 30.0026C62.9218 30.1767 62.7515 30.2987 62.5673 30.2969C62.3831 30.2951 62.2392 30.1675 62.2216 29.9909C62.1002 28.8239 61.5377 25.6539 60.4175 25.0146C60.2154 24.9012 60.0172 24.8848 59.7898 24.9665C59.7162 24.9927 59.6076 25.0493 59.517 25.2333C58.9072 26.4456 60.0911 30.0451 60.6318 31.4195Z" fill="#46401A"/>
<path d="M58.0669 44.6494C58.0669 44.6494 61.779 46.5426 65.6256 44.1317C69.6149 41.6313 66.3213 35.3616 66.3213 35.3616L58.9666 35.8051C58.9666 35.8051 60.162 37.6936 59.2259 38.0935C58.178 38.5411 55.4208 37.0439 53.5226 37.0507L58.0669 44.6494Z" fill="white"/>
<path d="M55.8371 39.6242L58.4218 44.5609C58.4218 44.5609 61.7629 46.5277 65.6075 44.0811C69.5945 41.5438 66.3924 35.4118 66.3924 35.4118L63.9803 38.1719C66.1044 37.6189 67.1156 41.0586 64.263 42.8762C60.4184 45.3229 56.5526 40.4536 56.5526 40.4536L55.8371 39.6242Z" fill="#46401A" fill-opacity="0.2"/>
<path d="M64.6028 45.0738C61.0816 46.5779 58.6005 44.7523 58.4565 44.6799C58.2742 44.5876 58.2187 44.364 58.3311 44.182C58.4427 43.9977 58.6801 43.9246 58.86 44.018C58.8948 44.0366 61.8384 46.0793 65.4361 43.8262C68.6899 41.787 66.5677 36.7975 66.0717 35.7466L59.6009 36.1372C59.8392 36.6333 60.0911 37.3452 59.8972 37.8686C59.8027 38.1254 59.6143 38.3194 59.3555 38.4299C58.6593 38.7273 57.5795 38.4026 56.3328 38.0254C55.3435 37.7264 54.317 37.4175 53.4907 37.42C53.2779 37.4207 53.1203 37.2562 53.1378 37.0502C53.1553 36.8442 53.3402 36.6777 53.553 36.677C54.4977 36.673 55.5749 36.9988 56.62 37.3126C57.5837 37.6019 58.6742 37.9323 59.0969 37.7517C59.1423 37.7324 59.16 37.7145 59.1759 37.669C59.3037 37.3259 58.9275 36.479 58.6348 36.0139L58.293 35.4718L66.5677 34.9729L66.6703 35.1688C66.8118 35.4356 70.0727 41.7711 65.8178 44.4363C65.4081 44.6938 65.0018 44.9034 64.6028 45.0738Z" fill="#46401A"/>
<path d="M58.9685 36.8108C61.1003 39.7563 64.566 37.9147 65.4665 37.2696C67.3451 35.9229 67.3548 33.8139 67.3548 33.8139L64.9074 32.4786L63.7449 31.688L62.7677 31.8192C61.6227 30.9386 59.6327 30.2357 58.9673 31.0669C58.9645 31.0681 57.129 34.2717 58.9685 36.8108Z" fill="white"/>
<path d="M67.2172 32.6238C67.5969 33.6233 66.5006 35.1603 63.2762 36.1923C62.139 36.5562 60.978 36.2549 60.5992 35.2576C60.2195 34.2581 60.805 33.0578 61.9026 32.5761C63.0028 32.0933 66.8376 31.6243 67.2172 32.6238Z" fill="#46401A" fill-opacity="0.18"/>
<path d="M65.7962 29.3099C65.2615 30.4304 64.7538 31.3062 64.7538 31.3062L63.2697 34.4922L60.3903 31.6842C60.3903 31.6842 60.1136 30.983 59.8195 30.0236C60.5827 30.1957 61.9983 30.4918 62.5677 30.7903C63.5486 31.3036 64.8326 29.5483 65.7962 29.3099Z" fill="#46401A" fill-opacity="0.2"/>
<path d="M67.6008 33.3258C67.3727 34.384 65.2084 35.7592 64.109 35.505C63.1737 35.2888 63.646 34.304 63.7866 34.0431C63.8096 34.0024 63.8226 33.9788 63.8226 33.9788C63.8226 33.9788 62.8341 34.1049 62.4111 33.4742C62.3846 33.4339 62.3586 33.3883 62.3349 33.3418C61.9703 32.56 64.0109 30.8797 65.119 30.5892C65.9478 30.3718 66.3615 30.5403 66.5579 30.8272C66.7664 31.1323 66.7305 31.5701 66.6857 31.8132C66.6655 31.9249 66.6456 31.9951 66.6456 31.9951C66.6456 31.9951 67.7828 32.4779 67.6008 33.3258Z" fill="white"/>
<path d="M66.653 31.7923C66.146 32.3388 65.1004 33.3502 63.766 33.9924C63.7893 33.953 63.8025 33.93 63.8025 33.93C63.8025 33.93 62.8287 34.0724 62.4234 33.4772C63.298 33.2826 65.6567 32.6081 66.5437 30.8502C66.7436 31.138 66.7011 31.5583 66.653 31.7923Z" fill="#46401A" fill-opacity="0.2"/>
<path d="M67.6141 33.3453C67.3734 34.3707 65.2215 35.7421 64.1429 35.5198C63.6934 35.4272 63.5791 35.1492 63.5973 34.8574C63.6515 34.8782 63.7118 34.8988 63.7797 34.911C64.8556 35.1345 67.0099 33.7621 67.2506 32.7367C67.2758 32.6296 67.2792 32.5294 67.2656 32.4366C67.5012 32.652 67.7044 32.9554 67.6141 33.3453Z" fill="#46401A" fill-opacity="0.2"/>
<path d="M65.6136 35.6122C65.001 35.8739 64.4257 35.9675 63.9881 35.8659C63.5047 35.753 63.3045 35.4778 63.2235 35.2677C63.1059 34.9625 63.161 34.6171 63.2514 34.3415C62.8147 34.2858 62.2521 34.0959 61.9823 33.5182C61.8934 33.3294 61.8398 33.0047 62.0887 32.5377C62.6084 31.5532 64.1357 30.4706 65.0496 30.2296C65.8265 30.0267 66.4023 30.1001 66.7577 30.4481C67.1533 30.8355 67.1353 31.4279 67.0784 31.7821C67.4683 32.0122 68.1541 32.5435 67.9774 33.3686C67.8489 33.9619 67.2624 34.6425 66.405 35.1891C66.1393 35.3617 65.8749 35.5006 65.6136 35.6122ZM64.9029 31.0471C64.1619 31.3636 63.1135 32.1746 62.7673 32.8274C62.6871 32.9776 62.6596 33.1002 62.6896 33.1646C62.9434 33.7079 63.7968 33.6112 63.8049 33.6103C63.9478 33.5932 64.0818 33.6544 64.1525 33.7659C64.224 33.8796 64.2227 34.027 64.1449 34.1478C64.0435 34.3148 63.8579 34.7315 63.944 34.9548C63.9662 35.0124 64.0204 35.0948 64.2228 35.1397C64.6233 35.2315 65.3443 35.0059 66.0147 34.578C66.6566 34.1699 67.1387 33.6471 67.2192 33.2752C67.3375 32.7274 66.47 32.3355 66.4602 32.332C66.2978 32.2623 66.2203 32.0892 66.2719 31.9152C66.3207 31.7475 66.4104 31.2121 66.1795 30.9861C65.9758 30.7873 65.5266 30.8502 65.1873 30.9385C65.1025 30.9695 65.0048 31.0036 64.9029 31.0471Z" fill="#46401A"/>
<path d="M64.2481 34.179C64.1472 34.2218 64.0428 34.2637 63.9367 34.3012C63.735 34.3743 63.5249 34.2839 63.4669 34.0992C63.409 33.9144 63.5245 33.7035 63.7274 33.6323C65.3018 33.0593 66.3317 31.8351 66.3434 31.8226C66.4794 31.6578 66.719 31.6184 66.8796 31.7298C67.041 31.8432 67.062 32.066 66.9256 32.231C66.8785 32.2859 65.8716 33.4905 64.2481 34.179Z" fill="#46401A"/>
<path d="M58.9196 31.004C59.8038 29.8981 63.0199 31.499 63.5021 32.6281C63.8707 33.4905 63.0406 34.6947 61.2801 34.1454C59.4951 33.5909 57.5301 32.7415 58.9196 31.004Z" fill="white"/>
<path d="M67.3546 33.8138C67.3546 33.8138 67.3449 35.9227 65.4655 37.2673C64.565 37.9124 61.0985 39.7518 58.9675 36.8085C57.131 34.2708 58.9635 31.0659 58.9635 31.0659C59.8475 29.9608 63.0608 31.5598 63.5425 32.6875C63.9107 33.5491 62.7061 34.6415 60.9456 33.6008C60.9456 33.6008 62.0999 34.7353 61.153 36.2516L64.8912 36.5893L67.0691 35.1635L67.3546 33.8138Z" fill="white"/>
<path d="M61.5392 35.2921L61.4642 35.2855C61.499 35.2319 61.5267 35.1812 61.5535 35.1284C61.5522 35.1833 61.5482 35.2365 61.5392 35.2921Z" fill="white"/>
<path d="M60.8948 33.3397C60.5246 32.8652 62.7798 33.497 63.5429 32.7453C63.7617 33.451 62.9171 34.2859 61.6091 33.9006C61.3857 33.4866 60.8948 33.3397 60.8948 33.3397Z" fill="#46401A" fill-opacity="0.2"/>
<path d="M66.6941 35.3254L67.0627 35.081C66.8059 35.754 66.3294 36.557 65.4449 37.2002C64.5404 37.8573 61.0648 39.7457 58.9681 36.8524C57.7381 35.1537 58.2069 33.1198 58.6317 31.997C58.3668 33.1309 58.3176 34.6221 59.2554 35.9156C61.3529 38.811 64.8284 36.9228 65.732 36.2635C66.13 35.973 66.4454 35.6524 66.6941 35.3254Z" fill="#46401A" fill-opacity="0.17"/>
<path d="M67.3615 33.9733C67.3611 33.9943 67.3578 34.1596 67.316 34.4144L67.258 34.4522L67.3615 33.9733Z" fill="white"/>
<path d="M67.3634 34.3895C67.3438 34.4393 67.325 34.4912 67.3027 34.5421C67.3107 34.4974 67.3167 34.4559 67.3264 34.4156L67.3634 34.3895Z" fill="white"/>
<path d="M61.295 38.4611C61.0748 38.5111 60.86 38.5094 60.6498 38.4773C60.4396 38.4453 60.2378 38.3835 60.0528 38.2939C59.6768 38.1199 59.3517 37.8671 59.0854 37.5736C58.5641 36.9869 58.1423 36.3034 57.9314 35.5323C57.7164 34.7655 57.7047 33.9483 57.8364 33.1554C57.9007 32.7595 57.9998 32.367 58.1298 31.9821C58.1946 31.7883 58.2664 31.5993 58.3465 31.4095C58.3877 31.3142 58.4274 31.2221 58.474 31.1269C58.521 31.0316 58.5623 30.944 58.6215 30.8382C58.6317 30.8209 58.6401 30.807 58.6534 30.7909L58.6588 30.7833C58.8427 30.5517 59.1163 30.396 59.3652 30.326C59.6153 30.2529 59.851 30.243 60.0707 30.2503C60.2917 30.2596 60.4991 30.2929 60.6997 30.337C60.9002 30.3809 61.0927 30.4388 61.279 30.5045C61.6526 30.6353 62.0034 30.8019 62.3402 30.9901C62.6755 31.1815 62.9957 31.3976 63.2907 31.6581C63.4365 31.7904 63.5797 31.9315 63.7056 32.0982C63.7687 32.1827 63.8304 32.2705 63.8819 32.3755L63.9208 32.4549C63.932 32.4839 63.9404 32.5141 63.9502 32.5462C63.9689 32.6082 63.9935 32.6651 63.999 32.7302C64.048 32.9869 63.9879 33.272 63.8554 33.5126C63.7226 33.7535 63.5184 33.9602 63.2865 34.0878C63.2316 34.1268 63.1711 34.1501 63.1115 34.1756C63.051 34.1989 62.9934 34.2311 62.9326 34.2468C62.8122 34.28 62.6895 34.3168 62.5733 34.325C62.5149 34.3317 62.4538 34.3397 62.3946 34.3443L62.2214 34.343C62.1056 34.3459 61.9948 34.3257 61.8857 34.3101C61.451 34.2363 61.0744 34.0678 60.7258 33.8718L61.2362 33.2749C61.2975 33.3395 61.337 33.3849 61.3813 33.4412C61.4235 33.4933 61.4619 33.5494 61.4978 33.6068C61.5712 33.718 61.6359 33.8357 61.6935 33.9564C61.8049 34.2019 61.8847 34.4662 61.9274 34.7437C61.9533 34.883 61.9479 35.0279 61.9392 35.1717C61.9281 35.2439 61.9139 35.3149 61.9004 35.388C61.8866 35.4614 61.8568 35.5285 61.8337 35.5981C61.7311 35.8728 61.538 36.1161 61.2698 36.2722C61.1964 36.3141 61.1085 36.2944 61.0692 36.2282C61.0604 36.2137 61.0544 36.1982 61.0533 36.1804L61.0501 36.1585C61.0338 36.0151 61.0539 35.9002 61.0576 35.787C61.0614 35.6739 61.0806 35.5722 61.0855 35.469C61.111 35.2688 61.1218 35.08 61.1181 34.8818C61.1148 34.6861 61.0697 34.49 60.9836 34.3089C60.9402 34.2185 60.8921 34.13 60.8379 34.0468C60.8104 34.0041 60.7812 33.9648 60.7522 33.9253C60.7237 33.8882 60.6849 33.845 60.666 33.8246L60.662 33.8212C60.5247 33.675 60.5449 33.4379 60.708 33.2904C60.8424 33.1708 61.0343 33.1485 61.1742 33.2288C61.4651 33.3924 61.7695 33.5243 62.0821 33.5776C62.3885 33.6283 62.7066 33.6014 62.9269 33.4658C63.0432 33.4058 63.1238 33.3117 63.177 33.2189C63.2271 33.1249 63.2558 33.0192 63.2333 32.9172C63.2342 32.8909 63.2168 32.8672 63.2123 32.8406L63.2023 32.8009L63.1805 32.7582C63.1533 32.7023 63.113 32.6419 63.0674 32.5809C62.9767 32.4614 62.863 32.3467 62.7398 32.2358C62.2406 31.8007 61.6102 31.4498 60.9607 31.2162C60.6353 31.1011 60.2945 31.0185 59.9715 31.0034C59.8124 30.9961 59.6569 31.0107 59.5312 31.0462C59.4044 31.0849 59.3187 31.137 59.256 31.2131L59.291 31.1591C59.2544 31.224 59.2107 31.3129 59.1725 31.394C59.132 31.4762 59.0952 31.5619 59.06 31.6443C58.9884 31.8124 58.9247 31.9849 58.8668 32.16C58.7505 32.5081 58.6604 32.8604 58.6023 33.2147C58.485 33.9211 58.4978 34.6341 58.6832 35.2889C58.8626 35.9412 59.2118 36.5443 59.7083 37.0093C59.9514 37.2427 60.2116 37.4481 60.4864 37.6341C60.7658 37.8184 61.0508 37.9869 61.3665 38.2204L61.3674 38.2227C61.4263 38.2676 61.4337 38.3525 61.3824 38.4134C61.357 38.4346 61.3275 38.4524 61.295 38.4611Z" fill="#46401A"/>
<path d="M67.7791 33.9305C67.7772 34.0394 67.7749 34.12 67.7635 34.2124C67.7539 34.3013 67.7416 34.3914 67.7276 34.4772C67.7123 34.566 67.6902 34.6526 67.674 34.7393C67.6521 34.8258 67.6268 34.9112 67.6026 34.9987L67.5156 35.2544L67.4106 35.505C67.3341 35.6714 67.2565 35.8357 67.1562 35.9916C67.0656 36.1511 66.9552 36.3012 66.8458 36.4483C66.7232 36.5881 66.6106 36.7339 66.4739 36.8591C66.2203 37.1268 65.893 37.331 65.5284 37.425C65.5088 37.4308 65.4906 37.4204 65.4887 37.4006C65.4883 37.3931 65.4881 37.3856 65.4936 37.3781L65.4954 37.3747C65.6783 37.0471 65.891 36.8097 66.0787 36.5443C66.1806 36.421 66.2588 36.2797 66.3436 36.1484C66.4137 36.0079 66.4976 35.8743 66.5581 35.7302C66.5913 35.6595 66.6224 35.5896 66.6495 35.5163C66.6765 35.443 66.7077 35.373 66.7326 35.3006L66.8024 35.0806L66.8634 34.8591C66.8976 34.7108 66.9313 34.5626 66.9567 34.4128C66.9669 34.3391 66.982 34.2632 66.9896 34.1905C66.9985 34.12 67.0084 34.0386 67.0129 33.9851L67.0147 33.9613C67.0299 33.7567 67.2114 33.5893 67.4244 33.5832C67.6234 33.583 67.7809 33.7343 67.7791 33.9305Z" fill="#46401A"/>
<path d="M65.2412 44.7661C64.5582 45.0575 62.1767 45.8778 60.5698 43.9622C58.2586 41.2043 58.9161 38.1659 58.9457 38.0386C58.9812 37.8826 59.137 37.7771 59.2959 37.7953C59.4531 37.817 59.5519 37.9575 59.5192 38.1123C59.5104 38.1473 58.8999 41.0324 61.0393 43.5844C62.6333 45.4872 65.0811 44.242 65.1848 44.19C65.3324 44.1139 65.5049 44.1603 65.5735 44.2955C65.6403 44.4314 65.5769 44.602 65.4297 44.6804C65.4251 44.6824 65.3594 44.7157 65.2412 44.7661Z" fill="#46401A"/>
<path d="M55.5801 39.1741C56.3674 40.1895 57.0879 41.2529 57.7741 42.3331C58.1165 42.876 58.4521 43.4211 58.772 43.9767C58.932 44.2546 59.0947 44.5313 59.2497 44.8108L59.7101 45.6559C59.8651 45.9354 60.0117 46.2202 60.1579 46.5051L60.5996 47.3589C60.7412 47.6453 60.8837 47.9342 61.0204 48.2223C61.162 48.5088 61.2949 48.8008 61.4279 49.0929C61.9722 50.2541 62.4498 51.4452 62.9124 52.6415C63.3498 53.8487 63.7797 55.0586 64.1163 56.2999L64.2479 56.7644L64.3129 56.997L64.3701 57.2321L64.5971 58.1709C64.7455 58.7967 64.8718 59.4202 65.0045 60.0459C65.5251 62.5462 66.0051 65.0522 66.4589 67.5671L66.0829 67.2667C66.2729 67.2671 66.4362 67.2765 66.6097 67.2903C66.78 67.3052 66.9499 67.3249 67.1179 67.3483C67.4561 67.3991 67.7933 67.4713 68.1227 67.5763C68.4538 67.6786 68.7772 67.8143 69.086 67.9932C69.3913 68.1709 69.6781 68.4034 69.914 68.6842C70.1473 68.9653 70.3171 69.3042 70.4086 69.6563C70.5011 70.0032 70.5252 70.37 70.4706 70.7404C70.4123 71.1092 70.2659 71.4696 70.0527 71.7745C69.8437 72.084 69.5835 72.3434 69.3044 72.5631C68.7442 73.0055 68.1215 73.3093 67.4931 73.564C66.8631 73.8138 66.2193 74.007 65.5718 74.1728C65.2485 74.2531 64.9235 74.3285 64.598 74.394L63.6316 74.5899C62.9838 74.7149 62.324 74.8283 61.645 74.8763C61.3054 74.9003 60.9605 74.9081 60.6103 74.8845C60.2618 74.8576 59.9053 74.7997 59.5539 74.6764C59.3797 74.6113 59.2082 74.5303 59.0464 74.4305C58.8852 74.3328 58.7325 74.1968 58.6109 74.0654C58.3722 73.8162 58.1755 73.5408 57.9938 73.2623C57.6371 72.7012 57.3655 72.1066 57.1319 71.5065C56.8984 70.9063 56.702 70.2967 56.5261 69.6851C56.1719 68.4626 55.8897 67.2313 55.593 66.0129C55.294 64.7953 54.9924 63.5781 54.5578 62.4342L55.0811 62.631C54.8125 62.7547 54.5543 62.8618 54.2882 62.9691C54.0237 63.0734 53.7545 63.1716 53.4829 63.2627C53.2114 63.3539 52.9376 63.4379 52.6638 63.5143C52.3877 63.5919 52.1162 63.6596 51.8274 63.7229L52.1259 63.2503C52.4693 64.4249 52.963 65.5776 53.4591 66.7291C53.9584 67.882 54.4761 69.0341 54.9304 70.2206C55.159 70.8145 55.3694 71.4171 55.5459 72.0387C55.7217 72.6582 55.8628 73.2941 55.9176 73.9591C55.9407 74.2908 55.9523 74.6283 55.9099 74.9719C55.8936 75.1465 55.8519 75.3484 55.783 75.5256C55.7148 75.7052 55.6261 75.871 55.5264 76.028C55.3228 76.3376 55.0736 76.5987 54.8094 76.8313C54.5443 77.0614 54.2654 77.2658 53.9793 77.4489C53.4088 77.8202 52.8141 78.1278 52.2221 78.4189L51.3332 78.8456C51.034 78.9898 50.7285 79.1231 50.4231 79.2567C49.8066 79.515 49.1791 79.7486 48.5236 79.9301C47.8687 80.1061 47.1888 80.2394 46.4753 80.2245C46.1202 80.2176 45.7558 80.1679 45.4025 80.0471C45.0486 79.9325 44.7167 79.7326 44.4456 79.4744C44.1784 79.212 43.9754 78.9022 43.8407 78.5724C43.7012 78.2364 43.6299 77.8645 43.6489 77.4987C43.6678 77.1325 43.7567 76.7762 43.8926 76.448C44.0315 76.1212 44.2072 75.8157 44.4095 75.5344C44.6119 75.2534 44.8349 74.9937 45.0728 74.7466C45.1922 74.6243 45.3156 74.5061 45.4436 74.3936C45.5732 74.2781 45.6981 74.1719 45.8494 74.057L45.7305 74.5235C44.5666 72.2266 43.4293 69.9206 42.3278 67.5948C42.0543 67.0106 41.7783 66.4355 41.5167 65.8395C41.3874 65.5415 41.2489 65.2483 41.129 64.9472L40.7653 64.0465C40.3025 62.8349 39.8983 61.6061 39.538 60.3652C39.1753 59.1251 38.8662 57.8695 38.5899 56.6082C38.5164 56.2936 38.4526 55.9759 38.3871 55.6612C38.3208 55.3443 38.2577 55.0289 38.1964 54.7104C38.0718 54.0763 37.9528 53.4431 37.8483 52.805C37.6359 51.5272 37.4709 50.2543 37.3635 48.9542C37.3405 48.6304 37.3229 48.3075 37.3134 47.9844C37.3007 47.6596 37.2944 47.3381 37.292 47.0126C37.2906 46.363 37.3052 45.7131 37.3828 45.0602C37.3915 44.9904 37.455 44.9409 37.5267 44.9476C37.5874 44.9529 37.6348 44.9987 37.6405 45.0558L37.6413 45.0582C37.785 46.3308 37.9525 47.6027 38.1059 48.872C38.2816 50.1286 38.4659 51.4031 38.6623 52.6655C39.0504 55.192 39.5689 57.7005 40.2841 60.1507C40.639 61.3755 41.0372 62.5857 41.4922 63.7743C41.9496 64.9622 42.483 66.1138 43.0335 67.2757C44.1292 69.5927 45.266 71.8964 46.4244 74.185L46.5637 74.4568L46.3079 74.6507C46.1992 74.7333 46.0738 74.8373 45.961 74.9393C45.8458 75.0421 45.7345 75.149 45.6265 75.2573C45.4111 75.476 45.2139 75.7089 45.0392 75.9529C44.6909 76.4371 44.4421 76.9781 44.4183 77.5128C44.406 77.7791 44.4553 78.0373 44.5567 78.2835C44.6572 78.5348 44.8104 78.761 44.9946 78.9434C45.3677 79.306 45.9185 79.4732 46.51 79.4829C47.1022 79.4947 47.7213 79.3799 48.3271 79.2174C48.934 79.0497 49.5357 78.8273 50.1257 78.5778C50.42 78.4508 50.7136 78.3215 51.0063 78.182L51.8854 77.7586C52.4662 77.4738 53.0352 77.1772 53.5599 76.8367C54.0799 76.4979 54.5716 76.1067 54.8742 75.6457C54.9479 75.5311 55.0096 75.4126 55.0548 75.2919L55.0861 75.2022L55.1085 75.1094C55.1169 75.0784 55.1204 75.0491 55.1256 75.0167L55.1341 74.9701L55.1377 74.9172C55.1725 74.6307 55.1636 74.3333 55.1426 74.0398C55.0957 73.4461 54.9646 72.848 54.7956 72.2569C54.6291 71.6655 54.4227 71.082 54.2011 70.5013C53.7554 69.3406 53.2423 68.1943 52.7416 67.0366C52.2431 65.8781 51.7399 64.7135 51.3765 63.4712L51.2638 63.0873L51.6751 62.9984C51.9295 62.9436 52.2 62.8732 52.4594 62.8017C52.7212 62.7294 52.9831 62.6493 53.2378 62.5638C53.495 62.4775 53.7495 62.3843 54.002 62.284C54.252 62.1846 54.5102 62.0775 54.7461 61.9677L55.1279 61.7905L55.2695 62.1647C55.7266 63.3755 56.0303 64.6071 56.3316 65.8318C56.6305 67.0573 56.9121 68.2784 57.2577 69.4755C57.4313 70.0724 57.6192 70.6644 57.8426 71.2344C58.0644 71.8077 58.3199 72.3617 58.6414 72.8656C58.8049 73.1136 58.9742 73.3549 59.1748 73.5624L59.2096 73.6024L59.2443 73.6345C59.2672 73.6551 59.2884 73.6784 59.3138 73.6981L59.3876 73.7586L59.4668 73.8113C59.5756 73.8802 59.6963 73.9375 59.8244 73.9845C60.3437 74.1696 60.9718 74.185 61.5909 74.1416C62.2148 74.0965 62.8475 73.9898 63.4825 73.8666L64.4391 73.674C64.7543 73.6095 65.0665 73.5355 65.3802 73.4585C66.0012 73.3015 66.6153 73.1158 67.2005 72.8835C67.7824 72.6498 68.3457 72.3683 68.8102 71.9989C69.2758 71.6345 69.6153 71.1716 69.693 70.6547C69.7298 70.3981 69.7161 70.1251 69.6442 69.8642C69.5773 69.6089 69.4599 69.371 69.2895 69.1661C68.9515 68.7553 68.4235 68.4725 67.8538 68.2964C67.5671 68.2072 67.2698 68.1426 66.9656 68.096C66.814 68.0748 66.6606 68.0567 66.5068 68.0442C66.3553 68.0308 66.1925 68.0236 66.056 68.0233L65.735 68.023L65.6822 67.7221C65.2318 65.2168 64.7504 62.7137 64.2323 60.2228C64.099 59.6022 63.9741 58.9758 63.8266 58.36L63.6035 57.4409L63.5473 57.2102L63.4818 56.9831L63.351 56.5285C63.0125 55.3135 62.588 54.1199 62.143 52.9383C61.2194 50.5838 60.1482 48.2838 58.9846 46.0277C57.8161 43.7733 56.5733 41.5592 55.3433 39.3204C55.3095 39.2597 55.335 39.1844 55.3984 39.1503C55.4739 39.1121 55.5431 39.1275 55.5801 39.1741Z" fill="#46401A"/>
<path d="M39.6749 59.3711C40.1664 59.2421 40.6773 59.0912 41.1827 58.9164C41.2524 58.893 41.3197 58.8704 41.3862 58.8456C41.4584 58.8214 41.5296 58.795 41.6002 58.7661C41.6483 58.75 41.6954 58.7315 41.7427 58.7131C41.7996 58.6915 41.8541 58.6705 41.9103 58.6465C41.9809 58.6176 42.0489 58.5899 42.1195 58.5611L42.1243 58.5594C42.1949 58.5306 42.2622 58.5002 42.332 58.469C42.376 58.4491 42.4226 58.4284 42.4666 58.4085C42.5043 58.3933 42.5438 58.3749 42.5806 58.3573C42.6408 58.3295 42.6985 58.3026 42.7555 58.2731C42.8109 58.2468 42.8629 58.219 42.9151 58.1911C42.9271 58.1871 42.9383 58.1808 42.9473 58.1753C43.0089 58.1442 43.0701 58.111 43.1286 58.0785C43.1896 58.0451 43.2483 58.0126 43.3061 57.9778C43.311 57.9762 43.3148 57.9722 43.3197 57.9706C43.3527 57.9493 43.3872 57.9325 43.4177 57.9121C43.453 57.8899 43.4892 57.87 43.5237 57.8456C43.5437 57.8337 43.5616 57.8227 43.5808 57.8085L43.8327 58.559C44.1806 59.5958 45.3501 60.149 46.4291 59.7869L57.1515 56.1885C58.2305 55.8264 58.8295 54.6797 58.4816 53.6429L58.2801 53.0425C59.5829 52.8057 60.9867 52.2804 62.1397 51.7728C61.8779 51.1283 61.6091 50.494 61.3297 49.8683C61.086 49.3257 60.8399 48.7916 60.5875 48.27C59.5144 48.6661 58.2239 49.1068 57.0555 49.3936L56.6045 48.0496C56.2557 47.0103 55.087 46.4595 54.008 46.8217L43.2856 50.42C42.6489 50.6338 42.1801 51.1174 41.9724 51.6933C41.8286 52.0936 41.8122 52.5384 41.9556 52.9657L42.3788 54.2267C42.1636 54.3348 41.9319 54.4409 41.6913 54.5447C40.7836 54.9392 39.7431 55.3039 38.7885 55.6063C38.901 56.1646 39.0222 56.7252 39.1531 57.2903C39.313 57.9819 39.4872 58.6761 39.6749 59.3711Z" fill="#46401A" fill-opacity="0.2"/>
<path d="M55.922 52.3178C57.6391 52.3993 59.9499 51.4853 61.4907 50.7625C62.4145 50.3292 62.8034 49.248 62.3531 48.3764C61.9411 47.5793 60.9673 47.2278 60.0986 47.5631C58.6217 48.1333 56.3833 48.9204 54.8585 49.093" fill="white"/>
<path d="M55.922 52.3178C57.6391 52.3994 59.9498 51.4851 61.4907 50.7624C62.4144 50.3291 62.8034 49.248 62.3531 48.3764C62.2482 48.1752 62.1071 48.0016 61.9415 47.8592C61.8251 48.3814 61.4692 48.8504 60.9335 49.1021C59.3957 49.8263 57.0916 50.7358 55.3752 50.6565L55.922 52.3178Z" fill="#46401A" fill-opacity="0.2"/>
<path d="M59.2046 52.0925C58.0728 52.4723 56.8949 52.7391 55.8919 52.6902C54.6941 52.6348 54.1188 51.0241 54.1073 49.9539C54.0962 48.9171 54.6009 48.7477 54.8175 48.7238C56.2753 48.5584 58.4183 47.8135 59.9587 47.2169C61.0115 46.8096 62.1937 47.2325 62.6933 48.203C62.9587 48.7153 62.9949 49.3018 62.7948 49.852C62.5966 50.4016 62.1891 50.8441 61.646 51.0983C60.9331 51.4352 60.0817 51.7981 59.2046 52.0925ZM55.9497 51.9463C57.5638 52.0238 59.7663 51.1613 61.3278 50.4291C61.6791 50.2649 61.9431 49.976 62.0729 49.6215C62.202 49.2648 62.1784 48.8847 62.0079 48.5514C61.6812 47.921 60.9208 47.6468 60.234 47.9107C58.6673 48.5162 56.4883 49.2731 54.9498 49.4606C54.8529 49.6497 54.8267 50.4088 55.1505 51.1506C55.2496 51.382 55.5339 51.9265 55.9497 51.9463Z" fill="#46401A"/>
<path d="M38.9215 58.3368C39.7031 58.1721 40.6457 57.9378 41.5606 57.6206C41.6231 57.5996 41.6857 57.5786 41.7497 57.5546C41.817 57.532 41.881 57.5079 41.9476 57.483C41.9932 57.4677 42.0356 57.4508 42.0781 57.434C42.1303 57.414 42.1825 57.394 42.2313 57.3724C42.2971 57.3452 42.3605 57.3187 42.4237 57.2923L42.4284 57.2907C42.4917 57.2643 42.5574 57.2372 42.6201 57.2085C42.6618 57.1893 42.7035 57.1702 42.7428 57.1518C42.7781 57.1374 42.8125 57.1209 42.847 57.1041C42.9025 57.0778 42.9554 57.0522 43.0083 57.0267C43.0588 57.0021 43.1095 56.9776 43.1568 56.9513C43.1663 56.9481 43.1777 56.9417 43.1864 56.9362C43.2434 56.9067 43.3005 56.8774 43.3542 56.8465C43.4113 56.8171 43.465 56.7862 43.5187 56.7553C43.5236 56.7537 43.5276 56.7497 43.5324 56.748C43.5637 56.7299 43.5926 56.7125 43.6215 56.6951C43.6553 56.6761 43.6882 56.6546 43.7187 56.6342C43.8184 56.5725 43.914 56.507 44.0089 56.4392C44.0587 56.4044 44.1078 56.3674 44.1569 56.3304C44.206 56.2933 44.2519 56.2548 44.2978 56.2164L43.7721 54.6738L43.203 53.0019C42.8641 53.2031 42.4646 53.3988 42.0308 53.588C40.7712 54.1366 39.2327 54.6195 38.0983 54.9437C38.0719 54.9526 38.0446 54.9592 38.0158 54.9689C37.1675 55.2536 36.6424 56.0953 36.7911 56.9524C36.9609 57.9207 37.923 58.5485 38.9215 58.3368Z" fill="white"/>
<path d="M38.9215 58.3366C39.7031 58.1719 40.6457 57.9378 41.5607 57.6206C41.6231 57.5996 41.6857 57.5784 41.7497 57.5544C41.817 57.5319 41.881 57.5077 41.9476 57.4829C41.9932 57.4676 42.0358 57.4507 42.0783 57.434C42.1305 57.4139 42.1825 57.3938 42.2314 57.3722C42.2971 57.345 42.3605 57.3187 42.4238 57.2923L42.4286 57.2907C42.4919 57.2643 42.5578 57.2371 42.6203 57.2085C42.662 57.1893 42.7035 57.1702 42.7429 57.1518C42.7782 57.1374 42.8127 57.1207 42.8472 57.1039C42.9026 57.0776 42.9554 57.0522 43.0084 57.0267C43.059 57.002 43.1095 56.9774 43.1568 56.9513C43.1665 56.9481 43.1776 56.9417 43.1865 56.9362C43.2435 56.9068 43.3005 56.8774 43.3543 56.8464C43.4113 56.8171 43.4652 56.7862 43.5189 56.7552C43.5238 56.7536 43.5277 56.7496 43.5325 56.748C43.5639 56.7298 43.5928 56.7124 43.6217 56.695C43.6555 56.676 43.6884 56.6546 43.7189 56.6341C43.8185 56.5725 43.9142 56.5069 44.0091 56.4391C44.0589 56.4044 44.1079 56.3674 44.1569 56.3303C44.206 56.2933 44.2518 56.2549 44.2978 56.2164L43.7954 54.7431C43.7512 54.7785 43.7077 54.8161 43.6602 54.8501C43.6111 54.8872 43.5621 54.924 43.5123 54.9588C43.4198 55.0258 43.3234 55.089 43.2221 55.1538C43.1892 55.1752 43.1562 55.1965 43.1249 55.2147C43.096 55.232 43.0647 55.2504 43.0357 55.2678L43.0221 55.2749C42.9684 55.3058 42.9145 55.3366 42.8575 55.3661C42.8037 55.397 42.7467 55.4265 42.6897 55.4558C42.6808 55.4613 42.6721 55.4669 42.66 55.471C42.6127 55.4971 42.5622 55.5217 42.5116 55.5464C42.4586 55.5718 42.4059 55.5974 42.3504 55.6237C42.3159 55.6404 42.2814 55.6572 42.2461 55.6716C42.2044 55.6907 42.1628 55.7097 42.1235 55.7281C42.061 55.7568 41.9951 55.784 41.9319 55.8104L41.927 55.8121C41.8638 55.8385 41.798 55.8656 41.7346 55.892C41.6824 55.9121 41.6329 55.9312 41.5815 55.9536C41.539 55.9704 41.4964 55.9873 41.4508 56.0026C41.3843 56.0275 41.3203 56.0516 41.253 56.0742C41.1913 56.0974 41.1287 56.1185 41.0639 56.1402C40.149 56.4576 39.2063 56.6917 38.4247 56.8564C37.8054 56.9871 37.1983 56.7952 36.7903 56.4002C36.7621 56.5792 36.7634 56.7663 36.7959 56.9507C36.9611 57.9205 37.923 58.5483 38.9215 58.3366Z" fill="#46401A" fill-opacity="0.2"/>
<path d="M41.5448 58.0191C40.6677 58.3134 39.772 58.5368 38.9952 58.6999C38.4112 58.824 37.8192 58.7169 37.3274 58.3988C36.8357 58.0808 36.5108 57.5912 36.4136 57.0225C36.2257 55.9447 36.9116 54.8975 37.9997 54.5863C39.588 54.1329 41.7466 53.4342 43.009 52.6867C43.1962 52.5751 43.7008 52.4057 44.3175 53.2394C44.9539 54.0999 45.4666 55.7315 44.5447 56.4983C43.7767 57.1415 42.6765 57.6393 41.5448 58.0191ZM38.1392 55.3205C37.4712 55.5447 37.059 56.2048 37.1766 56.8821C37.2415 57.2508 37.4499 57.569 37.7704 57.7749C38.0884 57.9816 38.4725 58.0505 38.8517 57.9695C40.542 57.6129 42.8158 56.9705 44.0564 55.935C44.3759 55.6685 44.2745 55.0629 44.2154 54.8154C44.0261 54.0284 43.5492 53.4356 43.3561 53.3462C42.0134 54.1257 39.8213 54.8358 38.2064 55.298C38.1831 55.3083 38.1608 55.3133 38.1392 55.3205Z" fill="#46401A"/>
<path d="M42.277 52.1306L44.0084 57.2899C44.3301 58.2483 45.4073 58.7577 46.4046 58.423L56.2907 55.1053C57.2856 54.7714 57.8374 53.7153 57.5157 52.7569L55.7843 47.5976C55.4627 46.6392 54.3862 46.132 53.3914 46.4659L43.5029 49.7845C42.9165 49.9812 42.4841 50.4296 42.2927 50.9589C42.1598 51.3273 42.1453 51.7381 42.277 52.1306Z" fill="white"/>
<path d="M42.277 52.1306L44.0084 57.2899C44.3293 58.2459 45.4073 58.7577 46.4046 58.423L56.2907 55.1053C57.2856 54.7714 57.8374 53.7153 57.5157 52.7569L55.7843 47.5976C55.4627 46.6392 54.3862 46.132 53.3914 46.4659L43.5029 49.7845C42.9165 49.9812 42.4834 50.4273 42.2927 50.9589C42.1598 51.3273 42.1453 51.7381 42.277 52.1306Z" fill="white"/>
<path d="M43.08 54.5233L44.0092 57.2922C44.33 58.2482 45.4081 58.7602 46.4054 58.4255L56.2915 55.1077C57.2864 54.7738 57.8381 53.7176 57.5165 52.7592L56.1904 48.8079C54.5023 50.1992 56.5138 53.1573 52.6186 54.2257C49.4573 55.0913 48.1875 52.8452 48.1875 52.8452L44.4965 54.0839C44.4965 54.0839 45.0262 55.6302 44.4286 55.841C43.9623 56.0052 43.5288 55.3825 43.08 54.5233Z" fill="#46401A" fill-opacity="0.2"/>
<path d="M56.4094 55.4586L46.5209 58.7772C45.3194 59.1804 44.029 58.5703 43.6415 57.4156L41.9093 52.2541C41.5218 51.0993 42.1829 49.8343 43.3843 49.4311L53.2728 46.1125C54.4742 45.7093 55.7645 46.3194 56.152 47.4742L57.8842 52.6357C58.2718 53.7905 57.6108 55.0554 56.4094 55.4586ZM43.6207 50.1354C42.8253 50.4024 42.3857 51.2436 42.6423 52.0081L44.3745 57.1696C44.631 57.934 45.4891 58.3398 46.2845 58.0729L56.173 54.7543C56.9684 54.4873 57.4078 53.6461 57.1513 52.8817L55.4191 47.7202C55.1625 46.9558 54.3046 46.5499 53.5092 46.8169L43.6207 50.1354Z" fill="#46401A"/>
<path d="M47.8555 54.3119C48.2687 53.5209 47.9497 52.5705 47.1431 52.1891C46.3364 51.8075 45.3474 52.1394 44.9342 52.9304C44.521 53.7212 44.8399 54.6716 45.6466 55.0532C46.4533 55.4346 47.4422 55.1027 47.8555 54.3119Z" fill="#EFD423"/>
<path d="M44.8327 54.1457C44.8598 54.2266 44.8941 54.3048 44.9325 54.3794C44.81 53.6239 45.2736 52.8621 46.0498 52.6016C46.8283 52.3403 47.6559 52.6714 48.0132 53.3455C48.0012 53.2621 47.9797 53.182 47.9518 53.099C47.6736 52.2699 46.7487 51.8326 45.8861 52.1221C45.0282 52.41 44.5545 53.3167 44.8327 54.1457Z" fill="white"/>
<path d="M44.8327 54.1457C45.111 54.9748 46.0359 55.4121 46.8985 55.1226C47.7612 54.8331 48.2349 53.9264 47.9567 53.0973C47.8923 52.9056 47.7926 52.7361 47.6663 52.5909C47.6281 53.2256 47.1966 53.8124 46.5335 54.035C45.8703 54.2575 45.1698 54.0506 44.7588 53.5667C44.7449 53.7563 44.7676 53.9517 44.8327 54.1457Z" fill="#46401A" fill-opacity="0.2"/>
<path d="M46.9868 55.3858C45.9751 55.7254 44.8851 55.2099 44.5588 54.2376C44.2325 53.2654 44.7908 52.1966 45.8025 51.8571C46.8142 51.5175 47.9044 52.0331 48.2307 53.0054C48.557 53.9776 47.9985 55.0463 46.9868 55.3858ZM45.9793 52.3837C45.2703 52.6216 44.8797 53.3694 45.1083 54.0506C45.337 54.7319 46.0996 55.0926 46.8085 54.8547C47.5175 54.6168 47.9083 53.869 47.6796 53.1876C47.451 52.5064 46.6882 52.1457 45.9793 52.3837Z" fill="#46401A"/>
<path d="M52.3866 56.8087C52.1848 56.8764 51.9662 56.7751 51.9003 56.5787L50.8951 53.5834C50.7145 53.0454 50.8085 52.4408 51.1469 51.9675L51.7841 51.078C51.9841 50.7975 52.0405 50.4395 51.9343 50.123L50.9787 47.2756C50.9136 47.0816 51.0235 46.8674 51.2277 46.7989C51.4294 46.7312 51.6481 46.8325 51.714 47.0288L52.6696 49.8763C52.8502 50.4143 52.7562 51.0189 52.4178 51.4922L51.7806 52.3819C51.5806 52.6623 51.5243 53.0202 51.6305 53.3366L52.6357 56.3319C52.7016 56.5283 52.5908 56.7401 52.3866 56.8087Z" fill="#46401A"/>
<g opacity="0.35">
<path d="M34.5808 45.4506C34.9089 45.6155 35.2434 45.7677 35.582 45.9085C36.2093 46.1682 36.857 46.3851 37.5146 46.5601C40.3473 47.3131 43.4197 47.2661 46.3461 46.3303C47.4162 45.9891 48.4673 45.5283 49.4798 44.9445C51.8518 43.5754 53.7235 41.696 55.0281 39.5444C55.1336 39.3728 55.2327 39.1983 55.3287 39.0221C55.6132 38.5079 55.8662 37.9783 56.0863 37.4394C56.2231 37.1058 56.3479 36.7685 56.4582 36.4282C55.2322 35.763 53.7197 35.5897 52.2683 36.0768L38.1528 40.8139C36.0446 41.5189 34.6709 43.4162 34.5808 45.4506Z" fill="#46401A" fill-opacity="0.4"/>
</g>
<path d="M30.3994 40.1702C30.5468 40.0984 30.6122 39.9254 30.5406 39.7825L26.8379 32.3868C26.767 32.2461 26.5892 32.1872 26.4395 32.2598C24.8813 33.0142 24.2205 34.8304 24.9653 36.3174L26.2262 38.8387C26.9717 40.328 28.8404 40.9223 30.3994 40.1702Z" fill="white"/>
<path d="M30.0172 40.3969C29.3565 40.6156 28.649 40.6216 27.9845 40.4108C27.1788 40.1543 26.534 39.6087 26.1651 38.8718L24.9042 36.3505C24.5361 35.6158 24.4903 34.7797 24.7749 33.9956C25.0595 33.2115 25.6401 32.5759 26.4123 32.2023C26.5001 32.1604 26.6018 32.1524 26.6918 32.1815C26.7842 32.2099 26.8594 32.2749 26.9007 32.3586L30.6025 39.7518C30.6898 39.9254 30.6119 40.1409 30.4298 40.2294C30.2937 40.295 30.1571 40.3505 30.0172 40.3969ZM26.5014 32.3086C26.4917 32.3119 26.4821 32.3152 26.4732 32.3206C25.7355 32.6776 25.181 33.2869 24.9088 34.036C24.6365 34.7852 24.6813 35.5858 25.0338 36.2898L26.2948 38.8109C26.6472 39.5148 27.2653 40.0359 28.035 40.2811C28.8047 40.5263 29.6354 40.4642 30.3731 40.1072C30.4858 40.0519 30.5356 39.92 30.4802 39.8102L26.7784 32.417C26.7527 32.3639 26.7051 32.3258 26.6478 32.3064C26.5975 32.2923 26.5471 32.2935 26.5014 32.3086Z" fill="#46401A"/>
<path d="M25.6371 37.6621L26.2295 38.8436C26.9739 40.328 28.8393 40.9226 30.3994 40.1695C30.5467 40.0978 30.6089 39.9238 30.5404 39.7825L29.5583 37.8186C29.5624 37.9273 29.4995 38.035 29.3891 38.0893L29.2049 38.1784C27.9718 38.7725 26.5463 38.5265 25.6371 37.6621Z" fill="#46401A" fill-opacity="0.15"/>
<path d="M30.1132 40.6849C29.3877 40.9252 28.6114 40.9335 27.8808 40.7012C26.9948 40.4202 26.2858 39.819 25.8827 39.0114L24.6218 36.4903C24.2186 35.6828 24.1665 34.7641 24.4785 33.9017C24.7913 33.0417 25.43 32.3402 26.2762 31.9318C26.4397 31.852 26.6279 31.8384 26.7984 31.8922C26.972 31.9475 27.1098 32.0635 27.1869 32.2227L30.8887 39.6153C31.0509 39.9411 30.9073 40.3373 30.5667 40.504C30.4178 40.5713 30.2675 40.6338 30.1132 40.6849ZM26.5288 32.6329C25.906 32.9571 25.44 33.4858 25.2052 34.1303C24.9613 34.8035 25.0015 35.5182 25.3166 36.1499L26.5775 38.6711C26.8924 39.3026 27.4472 39.7702 28.1388 39.99C28.8009 40.2015 29.512 40.1585 30.1526 39.8719L26.5288 32.6329Z" fill="#46401A"/>
<path d="M51.9507 19.8584C51.8032 19.9302 51.7379 20.1033 51.8099 20.2462L55.5122 27.6418C55.5834 27.7824 55.7609 27.8416 55.9108 27.7689C57.4689 27.0146 58.1297 25.1982 57.3849 23.7114L56.1241 21.19C55.3777 19.6985 53.5088 19.1042 51.9507 19.8584Z" fill="white"/>
<path d="M55.8907 27.8448C55.8159 27.8695 55.7335 27.8711 55.6579 27.8448C55.5655 27.8165 55.4911 27.754 55.4491 27.6678L51.7463 20.2724C51.659 20.0988 51.737 19.8831 51.9191 19.7947C52.6886 19.422 53.5561 19.3578 54.3618 19.6143C55.1674 19.8706 55.8126 20.4161 56.1813 21.1531L57.4425 23.6743C57.8104 24.409 57.8563 25.2452 57.5716 26.0292C57.287 26.8133 56.7063 27.4491 55.9339 27.8228C55.9243 27.8336 55.9076 27.8392 55.8907 27.8448ZM51.9813 19.9177C51.8686 19.973 51.8189 20.1047 51.8744 20.2147L55.5766 27.6102C55.6024 27.6632 55.6501 27.7014 55.7077 27.7207C55.7648 27.7403 55.8273 27.735 55.8829 27.7089C56.6203 27.352 57.1747 26.7425 57.4473 25.9933C57.7194 25.2442 57.6747 24.4438 57.322 23.7398L56.0613 21.2185C55.7087 20.5146 55.0906 19.9935 54.321 19.7482C53.5471 19.4993 52.7192 19.5606 51.9813 19.9177Z" fill="#46401A"/>
<path d="M54.4834 25.5892L55.5107 27.6395C55.582 27.7799 55.7611 27.8359 55.9094 27.7664C56.7272 27.3707 57.2981 26.6826 57.549 25.903C57.7744 25.1985 57.7364 24.4196 57.3829 23.7142L56.8518 22.6525C56.8752 23.7974 56.2148 24.9223 55.0715 25.4742L54.7879 25.6115C54.6834 25.6589 54.5694 25.6452 54.4834 25.5892Z" fill="#46401A" fill-opacity="0.15"/>
<path d="M55.9877 28.1353C55.6669 28.2416 55.312 28.1077 55.1612 27.8089L51.4598 20.4161C51.2976 20.0903 51.4413 19.694 51.7815 19.5275C52.6281 19.1189 53.5807 19.0472 54.467 19.3281C55.3526 19.6092 56.0618 20.2103 56.4652 21.0178L57.7259 23.539C58.1288 24.3467 58.1812 25.2653 57.869 26.1277C57.5561 26.9877 56.9174 27.689 56.0713 28.0975C56.0471 28.1132 56.0187 28.1251 55.9877 28.1353ZM52.1969 20.1542L55.8211 27.3956C56.4437 27.0715 56.91 26.5427 57.1446 25.8983C57.3887 25.225 57.3483 24.5102 57.0335 23.8786L55.7727 21.3574C55.4575 20.7259 54.9027 20.2582 54.2109 20.0385C53.5485 19.8244 52.8373 19.8677 52.1969 20.1542Z" fill="#46401A"/>
<path d="M45.6209 43.3596C53.3119 40.8134 57.5551 32.7752 55.098 25.4058C52.6409 18.0366 44.4141 14.1267 36.723 16.673C29.032 19.2193 24.7892 27.2575 27.2462 34.6267C29.7033 41.9961 37.9298 45.9059 45.6209 43.3596Z" fill="white"/>
<path d="M45.618 43.4376C42.9325 44.3267 40.0571 44.4536 37.2752 43.7781C33.4918 42.8578 30.3408 40.5619 28.4045 37.3131C26.4657 34.0651 25.9717 30.2492 27.0146 26.5752C28.0567 22.8989 30.5086 19.8015 33.9192 17.855C40.9619 13.8321 49.9464 16.0183 53.9453 22.7253C57.9467 29.4339 55.4716 38.1638 48.4304 42.1836C47.5269 42.6979 46.5838 43.1179 45.618 43.4376ZM36.7491 16.7336C35.8049 17.0461 34.8796 17.455 33.9857 17.9662C30.6073 19.8969 28.1773 22.964 27.1452 26.6063C26.1124 30.2461 26.6021 34.025 28.523 37.2432C30.4437 40.4613 33.5636 42.7366 37.3097 43.6489C41.058 44.5603 44.9815 43.9992 48.3599 42.0685C55.3351 38.0833 57.7877 29.4379 53.8228 22.7915C50.3697 16.998 43.1605 14.611 36.7491 16.7336Z" fill="#46401A"/>
<path d="M27.5834 35.5368C27.8289 36.1279 28.1224 36.7109 28.4618 37.2788C32.4487 43.9499 41.3714 46.1156 48.393 42.1148C55.4145 38.114 57.8753 29.4643 53.8886 22.7931C53.7738 22.601 53.6549 22.4128 53.5317 22.2285C56.1875 28.598 53.5824 36.1501 47.1576 39.8081C40.3375 43.6912 31.7259 41.7604 27.5834 35.5368Z" fill="#46401A" fill-opacity="0.1"/>
<path d="M45.7113 43.7274C42.9681 44.6355 40.0293 44.7653 37.1885 44.0735C33.3237 43.1338 30.1056 40.7886 28.127 37.4692C26.1461 34.1506 25.6435 30.2529 26.7082 26.5C27.7722 22.7449 30.2771 19.5812 33.7617 17.5923C40.9552 13.4838 50.1339 15.7163 54.2211 22.5683C58.3082 29.4203 55.7808 38.339 48.5872 42.4474C47.6628 42.9714 46.6987 43.4005 45.7113 43.7274ZM36.845 17.0225C35.9226 17.3279 35.0158 17.7281 34.1419 18.2274C30.8351 20.1165 28.4604 23.1166 27.45 26.6797C26.4413 30.2398 26.9194 33.9354 28.7962 37.0861C30.6747 40.2336 33.7274 42.4594 37.3921 43.3526C41.0585 44.2426 44.898 43.6944 48.203 41.8084C55.0284 37.9115 57.4251 29.4512 53.5469 22.9528C50.17 17.2828 43.1167 14.9463 36.845 17.0225Z" fill="#46401A"/>
<path d="M28.6903 37.5655C30.065 39.9564 32.1568 41.723 34.6036 42.7907C36.4403 43.5916 42.1167 43.6312 47.4403 40.7519C52.3768 38.0828 55.4114 33.1179 55.6647 31.1666C55.9999 28.5632 55.5383 25.8956 54.1637 23.5047C50.5254 17.1805 43.3127 17.7059 36.2785 21.5894C29.2443 25.4729 25.0523 31.2412 28.6903 37.5655Z" fill="#46401A"/>
<path d="M44.1638 42.57C39.7883 44.0183 35.8777 43.7577 34.4392 43.1323C31.827 41.9937 29.7229 40.1337 28.3513 37.752C26.5648 34.6469 26.4949 31.5345 28.1395 28.4952C29.5744 25.8454 32.3268 23.3462 36.0935 21.2668C39.8603 19.1876 43.4676 18.1779 46.5265 18.3464C50.0326 18.5409 52.7164 20.2145 54.5021 23.3172C55.8728 25.6966 56.4058 28.425 56.0482 31.2024C55.7831 33.255 52.7424 38.3062 47.6248 41.0734C46.4632 41.7039 45.298 42.1946 44.1638 42.57ZM29.029 37.379C30.3201 39.6235 32.3057 41.3768 34.7709 42.4512C36.4074 43.1648 41.9248 43.3136 47.2599 40.4282C52.0766 37.8247 55.0426 32.9902 55.2834 31.1302C55.6205 28.5083 55.1184 25.936 53.8276 23.6914C52.1743 20.8189 49.6978 19.2691 46.4648 19.0917C43.5577 18.9294 40.0995 19.9051 36.4663 21.9119C32.8325 23.9165 30.1893 26.3104 28.8257 28.829C27.3042 31.6278 27.3753 34.5041 29.029 37.379Z" fill="#46401A"/>
<path d="M33.9749 36.3344C34.7797 35.6882 34.7027 34.3124 33.8029 33.2616C32.9031 32.2108 31.5212 31.8828 30.7164 32.5289C29.9116 33.1751 29.9885 34.5508 30.8883 35.6016C31.7882 36.6526 33.1701 36.9805 33.9749 36.3344Z" fill="white" fill-opacity="0.2"/>
<path d="M37.6852 38.3655C38.0696 37.9603 37.9922 37.2903 37.5122 36.8689C37.0323 36.4476 36.3317 36.4345 35.9474 36.8398C35.563 37.2451 35.6402 37.9151 36.1202 38.3365C36.6001 38.7578 37.3008 38.7708 37.6852 38.3655Z" fill="white" fill-opacity="0.2"/>
<path d="M27.7714 30.3096C27.0298 32.5826 27.2259 35.0293 28.6883 37.567C30.0631 39.9546 32.1561 41.7214 34.6038 42.788C36.441 43.5881 42.1197 43.6289 47.4484 40.7544C49.3296 39.7394 50.9345 38.3937 52.2154 37.0065C45.5909 40.4061 38.6605 40.3336 36.3822 39.3415C33.2746 37.9889 30.6186 35.7454 28.8749 32.7176C28.4059 31.9057 28.0424 31.105 27.7714 30.3096Z" fill="#272410" fill-opacity="0.3"/>
<path d="M26.7183 31.7417C26.6365 31.7688 26.5439 31.7714 26.4581 31.7384C26.2848 31.6757 26.1896 31.5027 26.2215 31.3337C26.7607 27.0349 30.1191 22.8867 35.4427 19.9512C40.8089 16.9912 46.2151 16.3874 50.2749 18.2944L50.101 18.6307L49.9604 18.9789L49.923 18.9632C46.0918 17.1643 40.9503 17.7597 35.8118 20.5931C30.703 23.4114 27.4856 27.3573 26.9832 31.4214L26.9778 31.4616L26.957 31.5195C26.9157 31.6278 26.8242 31.7067 26.7183 31.7417Z" fill="#46401A"/>
<path d="M53.4672 28.8273C53.4672 28.8273 51.9336 21.4618 46.9711 20.9236C42.0086 20.3855 36.9349 23.1918 37.2331 23.4361C37.2331 23.4361 43.6026 21.6344 48.2399 24.6516C51.8147 26.9783 53.4672 28.8273 53.4672 28.8273Z" fill="white" fill-opacity="0.2"/>
</g>
</svg>
