<svg width="41" height="40" viewBox="0 0 41 40" fill="none" xmlns="http://www.w3.org/2000/svg">
<path d="M35.9032 1.50003H4.85641C3.00272 1.50003 1.5 3.00275 1.5 4.85645V28.1802C1.5 30.034 3.00272 31.5367 4.85641 31.5367H35.9032C37.757 31.5367 39.2596 30.034 39.2596 28.1802V4.85645C39.2596 3.00275 37.757 1.50003 35.9032 1.50003Z" stroke="white" stroke-width="3" stroke-linecap="round" stroke-linejoin="round"/>
<path d="M16.948 31.5349L15.2312 38.4004" stroke="white" stroke-width="3" stroke-linecap="round" stroke-linejoin="round"/>
<path d="M15.2312 38.4001H24.6711" stroke="white" stroke-width="3" stroke-linecap="round" stroke-linejoin="round"/>
<path d="M23.8131 31.5349L25.5283 38.4004" stroke="white" stroke-width="3" stroke-linecap="round" stroke-linejoin="round"/>
<path d="M28.1029 38.4001H12.6567" stroke="white" stroke-width="3" stroke-linecap="round" stroke-linejoin="round"/>
<path d="M1.50002 25.5083H39.2597" stroke="white" stroke-width="3" stroke-linecap="round" stroke-linejoin="round"/>
<path d="M6.84528 8.45944H10.6481" stroke="white" stroke-width="3" stroke-linecap="round" stroke-linejoin="round"/>
<path d="M14.4504 8.45944H16.7327" stroke="white" stroke-width="3" stroke-linecap="round" stroke-linejoin="round"/>
<path d="M6.84528 13.5896H9.12597" stroke="white" stroke-width="3" stroke-linecap="round" stroke-linejoin="round"/>
<path d="M12.9302 13.5896H16.733" stroke="white" stroke-width="3" stroke-linecap="round" stroke-linejoin="round"/>
<path d="M6.84528 18.7201H16.7333" stroke="white" stroke-width="3" stroke-linecap="round" stroke-linejoin="round"/>
<path d="M22.0967 1.5V25.5085" stroke="white" stroke-width="3" stroke-linecap="round" stroke-linejoin="round"/>
<path d="M22.0967 19.9784L27.2186 14.984C28.0541 14.3262 29.0805 13.9569 30.1437 13.9315C31.207 13.9061 32.2496 14.2259 33.1158 14.8431L39.2597 19.9784" stroke="white" stroke-width="3" stroke-linecap="round" stroke-linejoin="round"/>
<path d="M28.0948 9.29857C27.6313 9.29857 27.2557 8.92289 27.2557 8.45947C27.2557 7.99603 27.6313 7.62036 28.0948 7.62036" stroke="white" stroke-width="3"/>
<path d="M28.0949 9.29857C28.5583 9.29857 28.934 8.92289 28.934 8.45947C28.934 7.99603 28.5583 7.62036 28.0949 7.62036" stroke="white" stroke-width="3"/>
</svg>
