<svg width="40" height="40" viewBox="0 0 40 40" fill="none" xmlns="http://www.w3.org/2000/svg">
<path d="M35.9402 13.8V3.96C35.9402 3.30757 35.681 2.68186 35.2197 2.22052C34.7583 1.75918 34.1326 1.5 33.4802 1.5H3.96001C3.30758 1.5 2.68186 1.75918 2.22052 2.22052C1.75918 2.68186 1.5 3.30757 1.5 3.96V31.02C1.5 31.6724 1.75918 32.2981 2.22052 32.7595C2.68186 33.2208 3.30758 33.48 3.96001 33.48H13.8001" stroke="black" stroke-width="3" stroke-linecap="round" stroke-linejoin="round"/>
<path d="M1.50009 8.87988H35.9403" stroke="black" stroke-width="3" stroke-linecap="round" stroke-linejoin="round"/>
<path d="M17.4897 26.1C17.4897 27.2307 17.7124 28.3503 18.1451 29.3949C18.5778 30.4395 19.212 31.3887 20.0115 32.1882C20.811 32.9877 21.7602 33.6219 22.8048 34.0546C23.8494 34.4873 24.969 34.71 26.0997 34.71C27.2304 34.71 28.35 34.4873 29.3946 34.0546C30.4392 33.6219 31.3884 32.9877 32.1879 32.1882C32.9874 31.3887 33.6217 30.4395 34.0543 29.3949C34.487 28.3503 34.7097 27.2307 34.7097 26.1C34.7097 24.9693 34.487 23.8497 34.0543 22.8051C33.6217 21.7605 32.9874 20.8113 32.1879 20.0118C31.3884 19.2123 30.4392 18.5781 29.3946 18.1454C28.35 17.7127 27.2304 17.49 26.0997 17.49C24.969 17.49 23.8494 17.7127 22.8048 18.1454C21.7602 18.5781 20.811 19.2123 20.0115 20.0118C19.212 20.8113 18.5778 21.7605 18.1451 22.8051C17.7124 23.8497 17.4897 24.9693 17.4897 26.1Z" stroke="black" stroke-width="3" stroke-linecap="round" stroke-linejoin="round"/>
<path d="M38.4009 38.4005L32.1885 32.1898" stroke="black" stroke-width="3" stroke-linecap="round" stroke-linejoin="round"/>
</svg>
