<svg width="35" height="37" viewBox="0 0 35 37" fill="none" xmlns="http://www.w3.org/2000/svg">
<path d="M34.0853 25.6985C34.2594 26.0006 34.3066 26.3593 34.2168 26.6961C34.1269 27.033 33.9073 27.3205 33.6059 27.4958L17.7914 36.7209C17.5899 36.8384 17.3608 36.9004 17.1275 36.9004C16.8942 36.9004 16.6651 36.8384 16.4636 36.7209L0.649056 27.4958C0.352029 27.3173 0.137254 27.029 0.0512327 26.6933C-0.0347886 26.3576 0.0148662 26.0016 0.189446 25.7022C0.364026 25.4029 0.649481 25.1843 0.984009 25.0939C1.31854 25.0035 1.67521 25.0485 1.97682 25.2191L17.1324 34.0572L32.288 25.2191C32.5901 25.0451 32.9488 24.9978 33.2857 25.0876C33.6225 25.1775 33.91 25.3971 34.0853 25.6985ZM32.288 17.3119L17.1324 26.1499L1.97682 17.3119C1.67674 17.1625 1.33101 17.133 1.01 17.2295C0.688982 17.326 0.416806 17.5413 0.24887 17.8314C0.0809336 18.1215 0.029859 18.4647 0.106041 18.7911C0.182224 19.1175 0.379937 19.4027 0.65894 19.5885L16.4735 28.8137C16.675 28.9312 16.9041 28.9931 17.1374 28.9931C17.3706 28.9931 17.5997 28.9312 17.8013 28.8137L33.6158 19.5885C33.7677 19.5026 33.901 19.3873 34.008 19.2494C34.115 19.1116 34.1935 18.9538 34.2391 18.7853C34.2846 18.6168 34.2962 18.441 34.2733 18.268C34.2503 18.095 34.1932 17.9283 34.1053 17.7775C34.0173 17.6268 33.9004 17.495 33.7611 17.3898C33.6218 17.2846 33.463 17.2082 33.294 17.1648C33.1249 17.1215 32.949 17.1122 32.7763 17.1374C32.6036 17.1627 32.4376 17.222 32.288 17.3119ZM0 10.5429C0.000525572 10.3121 0.0616689 10.0854 0.177311 9.88566C0.292953 9.68589 0.459036 9.52 0.65894 9.40458L16.4735 0.17943C16.675 0.0619183 16.9041 0 17.1374 0C17.3706 0 17.5997 0.0619183 17.8013 0.17943L33.6158 9.40458C33.8147 9.52065 33.9798 9.68683 34.0945 9.88655C34.2092 10.0863 34.2696 10.3126 34.2696 10.5429C34.2696 10.7732 34.2092 10.9995 34.0945 11.1993C33.9798 11.399 33.8147 11.5652 33.6158 11.6812L17.8013 20.9064C17.5997 21.0239 17.3706 21.0858 17.1374 21.0858C16.9041 21.0858 16.675 21.0239 16.4735 20.9064L0.65894 11.6812C0.459036 11.5658 0.292953 11.3999 0.177311 11.2001C0.0616689 11.0004 0.000525572 10.7737 0 10.5429ZM3.93387 10.5429L17.1324 18.2426L30.331 10.5429L17.1324 2.84319L3.93387 10.5429Z" fill="white"/>
</svg>
