<svg width="42" height="34" viewBox="0 0 42 34" fill="none" xmlns="http://www.w3.org/2000/svg">
<path d="M6.12593 16.7071C6.71595 17.1924 7.19138 17.8021 7.51819 18.4926C8.35354 20.2156 8.35354 22.3214 8.35354 24.3645C8.35354 28.5952 8.52757 30.6296 12.5303 30.6296C12.8996 30.6296 27.9953 30.7763 28.2564 31.0374C28.5175 31.2985 13.9226 31.6527 13.9226 32.0219C13.9226 32.3912 13.7759 32.7453 13.5148 33.0064C13.2537 33.2675 12.8996 33.4142 12.5303 33.4142C9.48823 33.4142 7.42769 32.3456 6.40438 30.2363C5.56903 28.5134 5.56903 26.4076 5.56903 24.3645C5.56903 20.1338 5.39499 18.0993 1.39226 18.0993C1.02301 18.0993 0.668881 17.9527 0.407783 17.6916C0.146684 17.4305 0 17.0763 0 16.7071C0 16.3378 0.146684 15.9837 0.407783 15.7226C0.668881 15.4615 1.02301 15.3148 1.39226 15.3148C5.39499 15.3148 5.56903 13.2804 5.56903 9.04967C5.56903 7.01001 5.56903 4.90074 6.40438 3.17783C7.43117 1.06856 9.49171 0 12.5338 0C12.903 0 13.2572 0.146684 13.5183 0.407783C13.7794 0.668882 13.926 1.02301 13.926 1.39226C13.926 1.76151 13.7794 2.11563 13.5183 2.37673C13.2572 2.63783 12.903 2.78451 12.5338 2.78451C8.53105 2.78451 8.35702 4.81895 8.35702 9.04967C8.35702 11.0893 8.35702 13.1986 7.52167 14.9215C7.19385 15.6124 6.71721 16.2221 6.12593 16.7071ZM40.3789 15.3148C36.3762 15.3148 36.2022 13.2804 36.2022 9.04967C36.2022 7.01001 36.2022 4.90074 35.3668 3.17783C34.3435 1.06856 32.283 0 29.2409 0C28.8716 0 28.5175 0.146684 28.2564 0.407783C27.9953 0.668882 27.8486 1.02301 27.8486 1.39226C27.8486 1.76151 27.9953 2.11563 28.2564 2.37673C28.5175 2.63783 28.8716 2.78451 29.2409 2.78451C33.2436 2.78451 33.4176 4.81895 33.4176 9.04967C33.4176 11.0893 33.4176 13.1986 34.253 14.9215C34.5798 15.612 35.0552 16.2218 35.6453 16.7071C35.0552 17.1924 34.5798 17.8021 34.253 18.4926C33.4176 20.2156 33.4176 22.3214 33.4176 24.3645C33.4176 28.5952 33.2436 30.6296 29.2409 30.6296C28.8716 30.6296 28.5175 30.7763 28.2564 31.0374C27.9953 31.2985 27.8486 31.6527 27.8486 32.0219C27.8486 32.3912 27.9953 32.7453 28.2564 33.0064C28.5175 33.2675 28.8716 33.4142 29.2409 33.4142C32.283 33.4142 34.3435 32.3456 35.3668 30.2363C36.2022 28.5134 36.2022 26.4076 36.2022 24.3645C36.2022 20.1338 36.3762 18.0993 40.3789 18.0993C40.7482 18.0993 41.1023 17.9527 41.3634 17.6916C41.6245 17.4305 41.7712 17.0763 41.7712 16.7071C41.7712 16.3378 41.6245 15.9837 41.3634 15.7226C41.1023 15.4615 40.7482 15.3148 40.3789 15.3148Z" fill="black"/>
</svg>
