<svg width="38" height="40" viewBox="0 0 38 40" fill="none" xmlns="http://www.w3.org/2000/svg">
<path d="M23.6402 28.5603V35.9403C23.6402 36.5928 23.3811 37.2185 22.9197 37.6798C22.4584 38.1412 21.8327 38.4004 21.1802 38.4004H16.2602C15.6077 38.4004 14.982 38.1412 14.5207 37.6798C14.0593 37.2185 13.8001 36.5928 13.8001 35.9403V28.5603" stroke="black" stroke-width="3" stroke-linecap="round" stroke-linejoin="round"/>
<path d="M13.8001 33.4803H23.6402" stroke="black" stroke-width="3" stroke-linecap="round" stroke-linejoin="round"/>
<path d="M18.7202 1.5V3.96002" stroke="black" stroke-width="3" stroke-linecap="round" stroke-linejoin="round"/>
<path d="M1.5 18.7202H3.96002" stroke="black" stroke-width="3" stroke-linecap="round" stroke-linejoin="round"/>
<path d="M5.19003 6.41998L6.99405 8.1584" stroke="black" stroke-width="3" stroke-linecap="round" stroke-linejoin="round"/>
<path d="M35.9403 18.7202H33.4803" stroke="black" stroke-width="3" stroke-linecap="round" stroke-linejoin="round"/>
<path d="M32.2502 6.41998L30.4461 8.1584" stroke="black" stroke-width="3" stroke-linecap="round" stroke-linejoin="round"/>
<path d="M13.8001 17.9001C14.4526 17.9001 15.0783 18.1593 15.5396 18.6206C16.001 19.082 16.2602 19.7077 16.2602 20.3601V28.5602" fill="black"/>
<path d="M21.1802 28.5602V20.3601C21.1802 19.7077 21.4394 19.082 21.9007 18.6206C22.3621 18.1593 22.9878 17.9001 23.6402 17.9001" fill="black"/>
<path d="M13.6689 28.5603H23.7714C25.6003 27.6544 27.1359 26.2498 28.2008 24.5088C29.2658 22.7677 29.8168 20.761 29.7903 18.7202C29.7397 15.8 28.5572 13.0136 26.492 10.9484C24.4268 8.88318 21.6404 7.70063 18.7202 7.65005C15.8 7.70063 13.0136 8.88318 10.9484 10.9484C8.88321 13.0136 7.70066 15.8 7.65008 18.7202C7.62357 20.761 8.17458 22.7677 9.23955 24.5088C10.3045 26.2498 11.84 27.6544 13.6689 28.5603Z" stroke="black" stroke-width="3" stroke-linecap="round" stroke-linejoin="round"/>
</svg>
